<mxfile host="app.diagrams.net" modified="2022-03-28T15:07:28.928Z" agent="5.0 (Windows NT 10.0; Win64; x64) AppleWebKit/537.36 (KHTML, like Gecko) Chrome/99.0.4844.84 Safari/537.36" etag="YXe2WE7MBeufNEKFyBNH" version="17.2.4" type="github">
  <diagram id="KoFddJhbe0FZyu1BoCoi" name="Page-1">
    <mxGraphModel dx="782" dy="460" grid="1" gridSize="10" guides="1" tooltips="1" connect="1" arrows="1" fold="1" page="1" pageScale="1" pageWidth="850" pageHeight="1100" math="0" shadow="0">
      <root>
        <mxCell id="0" />
        <mxCell id="1" parent="0" />
        <mxCell id="8eVxbuw12mgeNVesT3ea-1" value="START" style="rounded=1;whiteSpace=wrap;html=1;" vertex="1" parent="1">
          <mxGeometry x="80" y="40" width="120" height="50" as="geometry" />
        </mxCell>
        <mxCell id="8eVxbuw12mgeNVesT3ea-3" value="" style="endArrow=classic;html=1;rounded=0;exitX=0.5;exitY=1;exitDx=0;exitDy=0;" edge="1" parent="1" source="8eVxbuw12mgeNVesT3ea-1" target="8eVxbuw12mgeNVesT3ea-4">
          <mxGeometry width="50" height="50" relative="1" as="geometry">
            <mxPoint x="300" y="100" as="sourcePoint" />
            <mxPoint x="300" y="150" as="targetPoint" />
          </mxGeometry>
        </mxCell>
        <mxCell id="8eVxbuw12mgeNVesT3ea-4" value="Read N1 and N2" style="rounded=0;whiteSpace=wrap;html=1;" vertex="1" parent="1">
          <mxGeometry x="80" y="120" width="120" height="50" as="geometry" />
        </mxCell>
        <mxCell id="8eVxbuw12mgeNVesT3ea-5" style="edgeStyle=orthogonalEdgeStyle;rounded=0;orthogonalLoop=1;jettySize=auto;html=1;exitX=0.5;exitY=1;exitDx=0;exitDy=0;" edge="1" parent="1" source="8eVxbuw12mgeNVesT3ea-4" target="8eVxbuw12mgeNVesT3ea-4">
          <mxGeometry relative="1" as="geometry" />
        </mxCell>
        <mxCell id="8eVxbuw12mgeNVesT3ea-7" value="" style="endArrow=classic;html=1;rounded=0;exitX=0.5;exitY=1;exitDx=0;exitDy=0;" edge="1" parent="1" source="8eVxbuw12mgeNVesT3ea-4" target="8eVxbuw12mgeNVesT3ea-8">
          <mxGeometry width="50" height="50" relative="1" as="geometry">
            <mxPoint x="300" y="172" as="sourcePoint" />
            <mxPoint x="293" y="230" as="targetPoint" />
          </mxGeometry>
        </mxCell>
        <mxCell id="8eVxbuw12mgeNVesT3ea-8" value="Display calculator Option" style="rounded=1;whiteSpace=wrap;html=1;" vertex="1" parent="1">
          <mxGeometry x="80" y="200" width="120" height="50" as="geometry" />
        </mxCell>
        <mxCell id="8eVxbuw12mgeNVesT3ea-68" value="" style="edgeStyle=orthogonalEdgeStyle;rounded=0;orthogonalLoop=1;jettySize=auto;html=1;" edge="1" parent="1" source="8eVxbuw12mgeNVesT3ea-10">
          <mxGeometry relative="1" as="geometry">
            <mxPoint x="140" y="340" as="targetPoint" />
          </mxGeometry>
        </mxCell>
        <mxCell id="8eVxbuw12mgeNVesT3ea-10" value="Read Choice" style="shape=parallelogram;perimeter=parallelogramPerimeter;whiteSpace=wrap;html=1;fixedSize=1;" vertex="1" parent="1">
          <mxGeometry x="80" y="270" width="120" height="50" as="geometry" />
        </mxCell>
        <mxCell id="8eVxbuw12mgeNVesT3ea-69" value="" style="edgeStyle=orthogonalEdgeStyle;rounded=0;orthogonalLoop=1;jettySize=auto;html=1;" edge="1" parent="1" source="8eVxbuw12mgeNVesT3ea-14" target="8eVxbuw12mgeNVesT3ea-15">
          <mxGeometry relative="1" as="geometry" />
        </mxCell>
        <mxCell id="8eVxbuw12mgeNVesT3ea-14" value="Switch(Choice)" style="rounded=0;whiteSpace=wrap;html=1;" vertex="1" parent="1">
          <mxGeometry x="80" y="340" width="120" height="50" as="geometry" />
        </mxCell>
        <mxCell id="8eVxbuw12mgeNVesT3ea-70" value="" style="edgeStyle=orthogonalEdgeStyle;rounded=0;orthogonalLoop=1;jettySize=auto;html=1;" edge="1" parent="1" source="8eVxbuw12mgeNVesT3ea-15" target="8eVxbuw12mgeNVesT3ea-17">
          <mxGeometry relative="1" as="geometry" />
        </mxCell>
        <mxCell id="8eVxbuw12mgeNVesT3ea-88" value="" style="edgeStyle=orthogonalEdgeStyle;rounded=0;orthogonalLoop=1;jettySize=auto;html=1;" edge="1" parent="1" source="8eVxbuw12mgeNVesT3ea-15" target="8eVxbuw12mgeNVesT3ea-16">
          <mxGeometry relative="1" as="geometry" />
        </mxCell>
        <mxCell id="8eVxbuw12mgeNVesT3ea-15" value="Case 1" style="rhombus;whiteSpace=wrap;html=1;" vertex="1" parent="1">
          <mxGeometry x="100" y="420" width="80" height="80" as="geometry" />
        </mxCell>
        <mxCell id="8eVxbuw12mgeNVesT3ea-16" value="add()" style="rounded=0;whiteSpace=wrap;html=1;" vertex="1" parent="1">
          <mxGeometry x="220" y="440" width="120" height="40" as="geometry" />
        </mxCell>
        <mxCell id="8eVxbuw12mgeNVesT3ea-71" value="" style="edgeStyle=orthogonalEdgeStyle;rounded=0;orthogonalLoop=1;jettySize=auto;html=1;" edge="1" parent="1" source="8eVxbuw12mgeNVesT3ea-17" target="8eVxbuw12mgeNVesT3ea-18">
          <mxGeometry relative="1" as="geometry" />
        </mxCell>
        <mxCell id="8eVxbuw12mgeNVesT3ea-89" value="" style="edgeStyle=orthogonalEdgeStyle;rounded=0;orthogonalLoop=1;jettySize=auto;html=1;" edge="1" parent="1" source="8eVxbuw12mgeNVesT3ea-17" target="8eVxbuw12mgeNVesT3ea-32">
          <mxGeometry relative="1" as="geometry" />
        </mxCell>
        <mxCell id="8eVxbuw12mgeNVesT3ea-17" value="Case2" style="rhombus;whiteSpace=wrap;html=1;" vertex="1" parent="1">
          <mxGeometry x="100" y="520" width="80" height="80" as="geometry" />
        </mxCell>
        <mxCell id="8eVxbuw12mgeNVesT3ea-72" value="" style="edgeStyle=orthogonalEdgeStyle;rounded=0;orthogonalLoop=1;jettySize=auto;html=1;" edge="1" parent="1" source="8eVxbuw12mgeNVesT3ea-18" target="8eVxbuw12mgeNVesT3ea-19">
          <mxGeometry relative="1" as="geometry" />
        </mxCell>
        <mxCell id="8eVxbuw12mgeNVesT3ea-90" value="" style="edgeStyle=orthogonalEdgeStyle;rounded=0;orthogonalLoop=1;jettySize=auto;html=1;" edge="1" parent="1" source="8eVxbuw12mgeNVesT3ea-18" target="8eVxbuw12mgeNVesT3ea-33">
          <mxGeometry relative="1" as="geometry" />
        </mxCell>
        <mxCell id="8eVxbuw12mgeNVesT3ea-18" value="case 3" style="rhombus;whiteSpace=wrap;html=1;" vertex="1" parent="1">
          <mxGeometry x="100" y="620" width="80" height="80" as="geometry" />
        </mxCell>
        <mxCell id="8eVxbuw12mgeNVesT3ea-73" value="" style="edgeStyle=orthogonalEdgeStyle;rounded=0;orthogonalLoop=1;jettySize=auto;html=1;" edge="1" parent="1" source="8eVxbuw12mgeNVesT3ea-19" target="8eVxbuw12mgeNVesT3ea-20">
          <mxGeometry relative="1" as="geometry" />
        </mxCell>
        <mxCell id="8eVxbuw12mgeNVesT3ea-91" value="" style="edgeStyle=orthogonalEdgeStyle;rounded=0;orthogonalLoop=1;jettySize=auto;html=1;" edge="1" parent="1" source="8eVxbuw12mgeNVesT3ea-19" target="8eVxbuw12mgeNVesT3ea-34">
          <mxGeometry relative="1" as="geometry" />
        </mxCell>
        <mxCell id="8eVxbuw12mgeNVesT3ea-19" value="Case 4" style="rhombus;whiteSpace=wrap;html=1;" vertex="1" parent="1">
          <mxGeometry x="100" y="720" width="80" height="80" as="geometry" />
        </mxCell>
        <mxCell id="8eVxbuw12mgeNVesT3ea-74" value="" style="edgeStyle=orthogonalEdgeStyle;rounded=0;orthogonalLoop=1;jettySize=auto;html=1;" edge="1" parent="1" source="8eVxbuw12mgeNVesT3ea-20" target="8eVxbuw12mgeNVesT3ea-21">
          <mxGeometry relative="1" as="geometry" />
        </mxCell>
        <mxCell id="8eVxbuw12mgeNVesT3ea-92" value="" style="edgeStyle=orthogonalEdgeStyle;rounded=0;orthogonalLoop=1;jettySize=auto;html=1;" edge="1" parent="1" source="8eVxbuw12mgeNVesT3ea-20" target="8eVxbuw12mgeNVesT3ea-35">
          <mxGeometry relative="1" as="geometry" />
        </mxCell>
        <mxCell id="8eVxbuw12mgeNVesT3ea-20" value="Case 5" style="rhombus;whiteSpace=wrap;html=1;" vertex="1" parent="1">
          <mxGeometry x="100" y="820" width="80" height="80" as="geometry" />
        </mxCell>
        <mxCell id="8eVxbuw12mgeNVesT3ea-75" value="" style="edgeStyle=orthogonalEdgeStyle;rounded=0;orthogonalLoop=1;jettySize=auto;html=1;" edge="1" parent="1" source="8eVxbuw12mgeNVesT3ea-21" target="8eVxbuw12mgeNVesT3ea-30">
          <mxGeometry relative="1" as="geometry" />
        </mxCell>
        <mxCell id="8eVxbuw12mgeNVesT3ea-86" value="" style="edgeStyle=orthogonalEdgeStyle;rounded=0;orthogonalLoop=1;jettySize=auto;html=1;" edge="1" parent="1" source="8eVxbuw12mgeNVesT3ea-21" target="8eVxbuw12mgeNVesT3ea-37">
          <mxGeometry relative="1" as="geometry" />
        </mxCell>
        <mxCell id="8eVxbuw12mgeNVesT3ea-21" value="Case 6" style="rhombus;whiteSpace=wrap;html=1;" vertex="1" parent="1">
          <mxGeometry x="100" y="920" width="80" height="80" as="geometry" />
        </mxCell>
        <mxCell id="8eVxbuw12mgeNVesT3ea-66" value="" style="edgeStyle=orthogonalEdgeStyle;rounded=0;orthogonalLoop=1;jettySize=auto;html=1;" edge="1" parent="1" source="8eVxbuw12mgeNVesT3ea-22" target="8eVxbuw12mgeNVesT3ea-47">
          <mxGeometry relative="1" as="geometry" />
        </mxCell>
        <mxCell id="8eVxbuw12mgeNVesT3ea-77" value="" style="edgeStyle=orthogonalEdgeStyle;rounded=0;orthogonalLoop=1;jettySize=auto;html=1;" edge="1" parent="1" source="8eVxbuw12mgeNVesT3ea-22" target="8eVxbuw12mgeNVesT3ea-23">
          <mxGeometry relative="1" as="geometry" />
        </mxCell>
        <mxCell id="8eVxbuw12mgeNVesT3ea-22" value="Case 8" style="rhombus;whiteSpace=wrap;html=1;" vertex="1" parent="1">
          <mxGeometry x="400" y="80" width="80" height="80" as="geometry" />
        </mxCell>
        <mxCell id="8eVxbuw12mgeNVesT3ea-65" value="" style="edgeStyle=orthogonalEdgeStyle;rounded=0;orthogonalLoop=1;jettySize=auto;html=1;" edge="1" parent="1" source="8eVxbuw12mgeNVesT3ea-23" target="8eVxbuw12mgeNVesT3ea-46">
          <mxGeometry relative="1" as="geometry" />
        </mxCell>
        <mxCell id="8eVxbuw12mgeNVesT3ea-78" value="" style="edgeStyle=orthogonalEdgeStyle;rounded=0;orthogonalLoop=1;jettySize=auto;html=1;" edge="1" parent="1" source="8eVxbuw12mgeNVesT3ea-23" target="8eVxbuw12mgeNVesT3ea-24">
          <mxGeometry relative="1" as="geometry" />
        </mxCell>
        <mxCell id="8eVxbuw12mgeNVesT3ea-23" value="Case 9" style="rhombus;whiteSpace=wrap;html=1;" vertex="1" parent="1">
          <mxGeometry x="400" y="190" width="80" height="80" as="geometry" />
        </mxCell>
        <mxCell id="8eVxbuw12mgeNVesT3ea-64" value="" style="edgeStyle=orthogonalEdgeStyle;rounded=0;orthogonalLoop=1;jettySize=auto;html=1;" edge="1" parent="1" source="8eVxbuw12mgeNVesT3ea-24" target="8eVxbuw12mgeNVesT3ea-45">
          <mxGeometry relative="1" as="geometry" />
        </mxCell>
        <mxCell id="8eVxbuw12mgeNVesT3ea-79" value="" style="edgeStyle=orthogonalEdgeStyle;rounded=0;orthogonalLoop=1;jettySize=auto;html=1;" edge="1" parent="1" source="8eVxbuw12mgeNVesT3ea-24" target="8eVxbuw12mgeNVesT3ea-25">
          <mxGeometry relative="1" as="geometry" />
        </mxCell>
        <mxCell id="8eVxbuw12mgeNVesT3ea-24" value="Case 10" style="rhombus;whiteSpace=wrap;html=1;" vertex="1" parent="1">
          <mxGeometry x="400" y="300" width="80" height="80" as="geometry" />
        </mxCell>
        <mxCell id="8eVxbuw12mgeNVesT3ea-63" value="" style="edgeStyle=orthogonalEdgeStyle;rounded=0;orthogonalLoop=1;jettySize=auto;html=1;" edge="1" parent="1" source="8eVxbuw12mgeNVesT3ea-25" target="8eVxbuw12mgeNVesT3ea-44">
          <mxGeometry relative="1" as="geometry" />
        </mxCell>
        <mxCell id="8eVxbuw12mgeNVesT3ea-80" value="" style="edgeStyle=orthogonalEdgeStyle;rounded=0;orthogonalLoop=1;jettySize=auto;html=1;" edge="1" parent="1" source="8eVxbuw12mgeNVesT3ea-25" target="8eVxbuw12mgeNVesT3ea-26">
          <mxGeometry relative="1" as="geometry" />
        </mxCell>
        <mxCell id="8eVxbuw12mgeNVesT3ea-25" value="Case 11" style="rhombus;whiteSpace=wrap;html=1;" vertex="1" parent="1">
          <mxGeometry x="400" y="400" width="80" height="80" as="geometry" />
        </mxCell>
        <mxCell id="8eVxbuw12mgeNVesT3ea-62" value="" style="edgeStyle=orthogonalEdgeStyle;rounded=0;orthogonalLoop=1;jettySize=auto;html=1;" edge="1" parent="1" source="8eVxbuw12mgeNVesT3ea-26" target="8eVxbuw12mgeNVesT3ea-43">
          <mxGeometry relative="1" as="geometry" />
        </mxCell>
        <mxCell id="8eVxbuw12mgeNVesT3ea-81" value="" style="edgeStyle=orthogonalEdgeStyle;rounded=0;orthogonalLoop=1;jettySize=auto;html=1;" edge="1" parent="1" source="8eVxbuw12mgeNVesT3ea-26" target="8eVxbuw12mgeNVesT3ea-27">
          <mxGeometry relative="1" as="geometry" />
        </mxCell>
        <mxCell id="8eVxbuw12mgeNVesT3ea-26" value="case12" style="rhombus;whiteSpace=wrap;html=1;" vertex="1" parent="1">
          <mxGeometry x="400" y="500" width="80" height="80" as="geometry" />
        </mxCell>
        <mxCell id="8eVxbuw12mgeNVesT3ea-61" value="" style="edgeStyle=orthogonalEdgeStyle;rounded=0;orthogonalLoop=1;jettySize=auto;html=1;" edge="1" parent="1" source="8eVxbuw12mgeNVesT3ea-27" target="8eVxbuw12mgeNVesT3ea-42">
          <mxGeometry relative="1" as="geometry" />
        </mxCell>
        <mxCell id="8eVxbuw12mgeNVesT3ea-82" value="" style="edgeStyle=orthogonalEdgeStyle;rounded=0;orthogonalLoop=1;jettySize=auto;html=1;" edge="1" parent="1" source="8eVxbuw12mgeNVesT3ea-27" target="8eVxbuw12mgeNVesT3ea-28">
          <mxGeometry relative="1" as="geometry" />
        </mxCell>
        <mxCell id="8eVxbuw12mgeNVesT3ea-27" value="case13" style="rhombus;whiteSpace=wrap;html=1;" vertex="1" parent="1">
          <mxGeometry x="400" y="600" width="80" height="80" as="geometry" />
        </mxCell>
        <mxCell id="8eVxbuw12mgeNVesT3ea-60" value="" style="edgeStyle=orthogonalEdgeStyle;rounded=0;orthogonalLoop=1;jettySize=auto;html=1;" edge="1" parent="1" source="8eVxbuw12mgeNVesT3ea-28" target="8eVxbuw12mgeNVesT3ea-41">
          <mxGeometry relative="1" as="geometry" />
        </mxCell>
        <mxCell id="8eVxbuw12mgeNVesT3ea-83" value="" style="edgeStyle=orthogonalEdgeStyle;rounded=0;orthogonalLoop=1;jettySize=auto;html=1;" edge="1" parent="1" source="8eVxbuw12mgeNVesT3ea-28" target="8eVxbuw12mgeNVesT3ea-29">
          <mxGeometry relative="1" as="geometry" />
        </mxCell>
        <mxCell id="8eVxbuw12mgeNVesT3ea-28" value="Case 14" style="rhombus;whiteSpace=wrap;html=1;" vertex="1" parent="1">
          <mxGeometry x="400" y="700" width="80" height="80" as="geometry" />
        </mxCell>
        <mxCell id="8eVxbuw12mgeNVesT3ea-59" value="" style="edgeStyle=orthogonalEdgeStyle;rounded=0;orthogonalLoop=1;jettySize=auto;html=1;" edge="1" parent="1" source="8eVxbuw12mgeNVesT3ea-29" target="8eVxbuw12mgeNVesT3ea-40">
          <mxGeometry relative="1" as="geometry" />
        </mxCell>
        <mxCell id="8eVxbuw12mgeNVesT3ea-84" value="" style="edgeStyle=orthogonalEdgeStyle;rounded=0;orthogonalLoop=1;jettySize=auto;html=1;" edge="1" parent="1" source="8eVxbuw12mgeNVesT3ea-29" target="8eVxbuw12mgeNVesT3ea-31">
          <mxGeometry relative="1" as="geometry" />
        </mxCell>
        <mxCell id="8eVxbuw12mgeNVesT3ea-29" value="case 15" style="rhombus;whiteSpace=wrap;html=1;" vertex="1" parent="1">
          <mxGeometry x="400" y="800" width="80" height="80" as="geometry" />
        </mxCell>
        <mxCell id="8eVxbuw12mgeNVesT3ea-124" value="" style="edgeStyle=orthogonalEdgeStyle;rounded=0;orthogonalLoop=1;jettySize=auto;html=1;" edge="1" parent="1" source="8eVxbuw12mgeNVesT3ea-30" target="8eVxbuw12mgeNVesT3ea-38">
          <mxGeometry relative="1" as="geometry" />
        </mxCell>
        <mxCell id="8eVxbuw12mgeNVesT3ea-30" value="Case 7" style="rhombus;whiteSpace=wrap;html=1;" vertex="1" parent="1">
          <mxGeometry x="100" y="1020" width="80" height="80" as="geometry" />
        </mxCell>
        <mxCell id="8eVxbuw12mgeNVesT3ea-58" value="" style="edgeStyle=orthogonalEdgeStyle;rounded=0;orthogonalLoop=1;jettySize=auto;html=1;" edge="1" parent="1" source="8eVxbuw12mgeNVesT3ea-31" target="8eVxbuw12mgeNVesT3ea-39">
          <mxGeometry relative="1" as="geometry" />
        </mxCell>
        <mxCell id="8eVxbuw12mgeNVesT3ea-94" value="" style="edgeStyle=orthogonalEdgeStyle;rounded=0;orthogonalLoop=1;jettySize=auto;html=1;" edge="1" parent="1" source="8eVxbuw12mgeNVesT3ea-31" target="8eVxbuw12mgeNVesT3ea-93">
          <mxGeometry relative="1" as="geometry" />
        </mxCell>
        <mxCell id="8eVxbuw12mgeNVesT3ea-31" value="Case 16" style="rhombus;whiteSpace=wrap;html=1;" vertex="1" parent="1">
          <mxGeometry x="400" y="900" width="80" height="80" as="geometry" />
        </mxCell>
        <mxCell id="8eVxbuw12mgeNVesT3ea-32" value="sub()" style="rounded=0;whiteSpace=wrap;html=1;" vertex="1" parent="1">
          <mxGeometry x="220" y="540" width="120" height="40" as="geometry" />
        </mxCell>
        <mxCell id="8eVxbuw12mgeNVesT3ea-33" value="multiply()" style="rounded=0;whiteSpace=wrap;html=1;" vertex="1" parent="1">
          <mxGeometry x="220" y="640" width="120" height="40" as="geometry" />
        </mxCell>
        <mxCell id="8eVxbuw12mgeNVesT3ea-34" value="divide()" style="rounded=0;whiteSpace=wrap;html=1;" vertex="1" parent="1">
          <mxGeometry x="220" y="740" width="120" height="40" as="geometry" />
        </mxCell>
        <mxCell id="8eVxbuw12mgeNVesT3ea-35" value="mod()" style="rounded=0;whiteSpace=wrap;html=1;" vertex="1" parent="1">
          <mxGeometry x="220" y="840" width="120" height="40" as="geometry" />
        </mxCell>
        <mxCell id="8eVxbuw12mgeNVesT3ea-37" value="fact()" style="rounded=0;whiteSpace=wrap;html=1;" vertex="1" parent="1">
          <mxGeometry x="220" y="940" width="120" height="40" as="geometry" />
        </mxCell>
        <mxCell id="8eVxbuw12mgeNVesT3ea-38" value="power()" style="rounded=0;whiteSpace=wrap;html=1;" vertex="1" parent="1">
          <mxGeometry x="220" y="1040" width="120" height="40" as="geometry" />
        </mxCell>
        <mxCell id="8eVxbuw12mgeNVesT3ea-39" value="cotx()" style="rounded=0;whiteSpace=wrap;html=1;" vertex="1" parent="1">
          <mxGeometry x="520" y="922.5" width="120" height="35" as="geometry" />
        </mxCell>
        <mxCell id="8eVxbuw12mgeNVesT3ea-40" value="cosecx()" style="rounded=0;whiteSpace=wrap;html=1;" vertex="1" parent="1">
          <mxGeometry x="530" y="820" width="120" height="40" as="geometry" />
        </mxCell>
        <mxCell id="8eVxbuw12mgeNVesT3ea-41" value="secx()" style="rounded=0;whiteSpace=wrap;html=1;" vertex="1" parent="1">
          <mxGeometry x="520" y="720" width="120" height="40" as="geometry" />
        </mxCell>
        <mxCell id="8eVxbuw12mgeNVesT3ea-42" value="tanx()" style="rounded=0;whiteSpace=wrap;html=1;" vertex="1" parent="1">
          <mxGeometry x="520" y="620" width="120" height="40" as="geometry" />
        </mxCell>
        <mxCell id="8eVxbuw12mgeNVesT3ea-43" value="cosx()" style="rounded=0;whiteSpace=wrap;html=1;" vertex="1" parent="1">
          <mxGeometry x="520" y="520" width="120" height="40" as="geometry" />
        </mxCell>
        <mxCell id="8eVxbuw12mgeNVesT3ea-44" value="sinx()" style="rounded=0;whiteSpace=wrap;html=1;" vertex="1" parent="1">
          <mxGeometry x="520" y="420" width="120" height="40" as="geometry" />
        </mxCell>
        <mxCell id="8eVxbuw12mgeNVesT3ea-45" value="squareroot()" style="rounded=0;whiteSpace=wrap;html=1;" vertex="1" parent="1">
          <mxGeometry x="520" y="320" width="120" height="40" as="geometry" />
        </mxCell>
        <mxCell id="8eVxbuw12mgeNVesT3ea-46" value="cube()" style="rounded=0;whiteSpace=wrap;html=1;" vertex="1" parent="1">
          <mxGeometry x="520" y="210" width="120" height="40" as="geometry" />
        </mxCell>
        <mxCell id="8eVxbuw12mgeNVesT3ea-47" value="square()" style="rounded=0;whiteSpace=wrap;html=1;" vertex="1" parent="1">
          <mxGeometry x="520" y="100" width="120" height="40" as="geometry" />
        </mxCell>
        <mxCell id="8eVxbuw12mgeNVesT3ea-67" value="" style="endArrow=classic;html=1;rounded=0;exitX=0.5;exitY=1;exitDx=0;exitDy=0;entryX=0.5;entryY=0;entryDx=0;entryDy=0;" edge="1" parent="1" source="8eVxbuw12mgeNVesT3ea-8" target="8eVxbuw12mgeNVesT3ea-10">
          <mxGeometry width="50" height="50" relative="1" as="geometry">
            <mxPoint x="380" y="390" as="sourcePoint" />
            <mxPoint x="430" y="340" as="targetPoint" />
          </mxGeometry>
        </mxCell>
        <mxCell id="8eVxbuw12mgeNVesT3ea-76" value="" style="endArrow=classic;html=1;rounded=0;exitX=0.5;exitY=1;exitDx=0;exitDy=0;entryX=0;entryY=0.5;entryDx=0;entryDy=0;" edge="1" parent="1" source="8eVxbuw12mgeNVesT3ea-30" target="8eVxbuw12mgeNVesT3ea-22">
          <mxGeometry width="50" height="50" relative="1" as="geometry">
            <mxPoint x="380" y="990" as="sourcePoint" />
            <mxPoint x="360" y="110" as="targetPoint" />
            <Array as="points">
              <mxPoint x="360" y="1100" />
              <mxPoint x="360" y="950" />
              <mxPoint x="360" y="120" />
            </Array>
          </mxGeometry>
        </mxCell>
        <mxCell id="8eVxbuw12mgeNVesT3ea-98" value="" style="edgeStyle=orthogonalEdgeStyle;rounded=0;orthogonalLoop=1;jettySize=auto;html=1;" edge="1" parent="1" source="8eVxbuw12mgeNVesT3ea-93" target="8eVxbuw12mgeNVesT3ea-95">
          <mxGeometry relative="1" as="geometry" />
        </mxCell>
        <mxCell id="8eVxbuw12mgeNVesT3ea-93" value="Default" style="rhombus;whiteSpace=wrap;html=1;" vertex="1" parent="1">
          <mxGeometry x="400" y="1000" width="80" height="80" as="geometry" />
        </mxCell>
        <mxCell id="8eVxbuw12mgeNVesT3ea-95" value="Exit" style="rounded=1;whiteSpace=wrap;html=1;" vertex="1" parent="1">
          <mxGeometry x="520" y="1015" width="120" height="50" as="geometry" />
        </mxCell>
        <mxCell id="8eVxbuw12mgeNVesT3ea-99" value="yes" style="text;html=1;align=center;verticalAlign=middle;resizable=0;points=[];autosize=1;strokeColor=none;fillColor=none;" vertex="1" parent="1">
          <mxGeometry x="180" y="440" width="30" height="20" as="geometry" />
        </mxCell>
        <mxCell id="8eVxbuw12mgeNVesT3ea-100" value="no" style="text;html=1;align=center;verticalAlign=middle;resizable=0;points=[];autosize=1;strokeColor=none;fillColor=none;" vertex="1" parent="1">
          <mxGeometry x="140" y="500" width="30" height="20" as="geometry" />
        </mxCell>
        <mxCell id="8eVxbuw12mgeNVesT3ea-101" value="yes" style="text;html=1;align=center;verticalAlign=middle;resizable=0;points=[];autosize=1;strokeColor=none;fillColor=none;" vertex="1" parent="1">
          <mxGeometry x="180" y="540" width="30" height="20" as="geometry" />
        </mxCell>
        <mxCell id="8eVxbuw12mgeNVesT3ea-102" value="yes" style="text;html=1;align=center;verticalAlign=middle;resizable=0;points=[];autosize=1;strokeColor=none;fillColor=none;" vertex="1" parent="1">
          <mxGeometry x="180" y="640" width="30" height="20" as="geometry" />
        </mxCell>
        <mxCell id="8eVxbuw12mgeNVesT3ea-103" value="yes" style="text;html=1;align=center;verticalAlign=middle;resizable=0;points=[];autosize=1;strokeColor=none;fillColor=none;" vertex="1" parent="1">
          <mxGeometry x="180" y="740" width="30" height="20" as="geometry" />
        </mxCell>
        <mxCell id="8eVxbuw12mgeNVesT3ea-104" value="yes" style="text;html=1;align=center;verticalAlign=middle;resizable=0;points=[];autosize=1;strokeColor=none;fillColor=none;" vertex="1" parent="1">
          <mxGeometry x="180" y="840" width="30" height="20" as="geometry" />
        </mxCell>
        <mxCell id="8eVxbuw12mgeNVesT3ea-105" value="yes" style="text;html=1;align=center;verticalAlign=middle;resizable=0;points=[];autosize=1;strokeColor=none;fillColor=none;" vertex="1" parent="1">
          <mxGeometry x="180" y="940" width="30" height="20" as="geometry" />
        </mxCell>
        <mxCell id="8eVxbuw12mgeNVesT3ea-106" value="yes" style="text;html=1;align=center;verticalAlign=middle;resizable=0;points=[];autosize=1;strokeColor=none;fillColor=none;" vertex="1" parent="1">
          <mxGeometry x="180" y="1030" width="30" height="20" as="geometry" />
        </mxCell>
        <mxCell id="8eVxbuw12mgeNVesT3ea-107" value="no" style="text;html=1;align=center;verticalAlign=middle;resizable=0;points=[];autosize=1;strokeColor=none;fillColor=none;" vertex="1" parent="1">
          <mxGeometry x="140" y="600" width="30" height="20" as="geometry" />
        </mxCell>
        <mxCell id="8eVxbuw12mgeNVesT3ea-108" value="no" style="text;html=1;align=center;verticalAlign=middle;resizable=0;points=[];autosize=1;strokeColor=none;fillColor=none;" vertex="1" parent="1">
          <mxGeometry x="140" y="700" width="30" height="20" as="geometry" />
        </mxCell>
        <mxCell id="8eVxbuw12mgeNVesT3ea-109" value="no" style="text;html=1;align=center;verticalAlign=middle;resizable=0;points=[];autosize=1;strokeColor=none;fillColor=none;" vertex="1" parent="1">
          <mxGeometry x="140" y="800" width="30" height="20" as="geometry" />
        </mxCell>
        <mxCell id="8eVxbuw12mgeNVesT3ea-110" value="no" style="text;html=1;align=center;verticalAlign=middle;resizable=0;points=[];autosize=1;strokeColor=none;fillColor=none;" vertex="1" parent="1">
          <mxGeometry x="140" y="902.5" width="30" height="20" as="geometry" />
        </mxCell>
        <mxCell id="8eVxbuw12mgeNVesT3ea-111" value="no" style="text;html=1;align=center;verticalAlign=middle;resizable=0;points=[];autosize=1;strokeColor=none;fillColor=none;" vertex="1" parent="1">
          <mxGeometry x="140" y="1000" width="30" height="20" as="geometry" />
        </mxCell>
        <mxCell id="8eVxbuw12mgeNVesT3ea-112" value="no" style="text;html=1;align=center;verticalAlign=middle;resizable=0;points=[];autosize=1;strokeColor=none;fillColor=none;" vertex="1" parent="1">
          <mxGeometry x="370" y="100" width="30" height="20" as="geometry" />
        </mxCell>
        <mxCell id="8eVxbuw12mgeNVesT3ea-113" value="no" style="text;html=1;align=center;verticalAlign=middle;resizable=0;points=[];autosize=1;strokeColor=none;fillColor=none;" vertex="1" parent="1">
          <mxGeometry x="440" y="160" width="30" height="20" as="geometry" />
        </mxCell>
        <mxCell id="8eVxbuw12mgeNVesT3ea-114" value="no" style="text;html=1;align=center;verticalAlign=middle;resizable=0;points=[];autosize=1;strokeColor=none;fillColor=none;" vertex="1" parent="1">
          <mxGeometry x="440" y="270" width="30" height="20" as="geometry" />
        </mxCell>
        <mxCell id="8eVxbuw12mgeNVesT3ea-115" value="no" style="text;html=1;align=center;verticalAlign=middle;resizable=0;points=[];autosize=1;strokeColor=none;fillColor=none;" vertex="1" parent="1">
          <mxGeometry x="440" y="380" width="30" height="20" as="geometry" />
        </mxCell>
        <mxCell id="8eVxbuw12mgeNVesT3ea-116" value="no" style="text;html=1;align=center;verticalAlign=middle;resizable=0;points=[];autosize=1;strokeColor=none;fillColor=none;" vertex="1" parent="1">
          <mxGeometry x="450" y="480" width="30" height="20" as="geometry" />
        </mxCell>
        <mxCell id="8eVxbuw12mgeNVesT3ea-117" value="no" style="text;html=1;align=center;verticalAlign=middle;resizable=0;points=[];autosize=1;strokeColor=none;fillColor=none;" vertex="1" parent="1">
          <mxGeometry x="440" y="580" width="30" height="20" as="geometry" />
        </mxCell>
        <mxCell id="8eVxbuw12mgeNVesT3ea-118" value="no" style="text;html=1;align=center;verticalAlign=middle;resizable=0;points=[];autosize=1;strokeColor=none;fillColor=none;" vertex="1" parent="1">
          <mxGeometry x="440" y="680" width="30" height="20" as="geometry" />
        </mxCell>
        <mxCell id="8eVxbuw12mgeNVesT3ea-119" value="no" style="text;html=1;align=center;verticalAlign=middle;resizable=0;points=[];autosize=1;strokeColor=none;fillColor=none;" vertex="1" parent="1">
          <mxGeometry x="450" y="780" width="30" height="20" as="geometry" />
        </mxCell>
        <mxCell id="8eVxbuw12mgeNVesT3ea-120" value="no" style="text;html=1;align=center;verticalAlign=middle;resizable=0;points=[];autosize=1;strokeColor=none;fillColor=none;" vertex="1" parent="1">
          <mxGeometry x="440" y="880" width="30" height="20" as="geometry" />
        </mxCell>
        <mxCell id="8eVxbuw12mgeNVesT3ea-121" value="no" style="text;html=1;align=center;verticalAlign=middle;resizable=0;points=[];autosize=1;strokeColor=none;fillColor=none;" vertex="1" parent="1">
          <mxGeometry x="450" y="980" width="30" height="20" as="geometry" />
        </mxCell>
        <mxCell id="8eVxbuw12mgeNVesT3ea-125" value="yes" style="text;html=1;align=center;verticalAlign=middle;resizable=0;points=[];autosize=1;strokeColor=none;fillColor=none;" vertex="1" parent="1">
          <mxGeometry x="490" y="100" width="30" height="20" as="geometry" />
        </mxCell>
        <mxCell id="8eVxbuw12mgeNVesT3ea-126" value="yes" style="text;html=1;align=center;verticalAlign=middle;resizable=0;points=[];autosize=1;strokeColor=none;fillColor=none;" vertex="1" parent="1">
          <mxGeometry x="480" y="210" width="30" height="20" as="geometry" />
        </mxCell>
        <mxCell id="8eVxbuw12mgeNVesT3ea-127" value="yes" style="text;html=1;align=center;verticalAlign=middle;resizable=0;points=[];autosize=1;strokeColor=none;fillColor=none;" vertex="1" parent="1">
          <mxGeometry x="480" y="320" width="30" height="20" as="geometry" />
        </mxCell>
        <mxCell id="8eVxbuw12mgeNVesT3ea-128" value="yes" style="text;html=1;align=center;verticalAlign=middle;resizable=0;points=[];autosize=1;strokeColor=none;fillColor=none;" vertex="1" parent="1">
          <mxGeometry x="480" y="420" width="30" height="20" as="geometry" />
        </mxCell>
        <mxCell id="8eVxbuw12mgeNVesT3ea-129" value="yes" style="text;html=1;align=center;verticalAlign=middle;resizable=0;points=[];autosize=1;strokeColor=none;fillColor=none;" vertex="1" parent="1">
          <mxGeometry x="480" y="520" width="30" height="20" as="geometry" />
        </mxCell>
        <mxCell id="8eVxbuw12mgeNVesT3ea-130" value="yes" style="text;html=1;align=center;verticalAlign=middle;resizable=0;points=[];autosize=1;strokeColor=none;fillColor=none;" vertex="1" parent="1">
          <mxGeometry x="480" y="620" width="30" height="20" as="geometry" />
        </mxCell>
        <mxCell id="8eVxbuw12mgeNVesT3ea-131" value="yes" style="text;html=1;align=center;verticalAlign=middle;resizable=0;points=[];autosize=1;strokeColor=none;fillColor=none;" vertex="1" parent="1">
          <mxGeometry x="480" y="720" width="30" height="20" as="geometry" />
        </mxCell>
        <mxCell id="8eVxbuw12mgeNVesT3ea-132" value="yes" style="text;html=1;align=center;verticalAlign=middle;resizable=0;points=[];autosize=1;strokeColor=none;fillColor=none;" vertex="1" parent="1">
          <mxGeometry x="480" y="820" width="30" height="20" as="geometry" />
        </mxCell>
        <mxCell id="8eVxbuw12mgeNVesT3ea-133" value="yes" style="text;html=1;align=center;verticalAlign=middle;resizable=0;points=[];autosize=1;strokeColor=none;fillColor=none;" vertex="1" parent="1">
          <mxGeometry x="480" y="922.5" width="30" height="20" as="geometry" />
        </mxCell>
        <mxCell id="8eVxbuw12mgeNVesT3ea-134" value="yes" style="text;html=1;align=center;verticalAlign=middle;resizable=0;points=[];autosize=1;strokeColor=none;fillColor=none;" vertex="1" parent="1">
          <mxGeometry x="480" y="1020" width="30" height="20" as="geometry" />
        </mxCell>
      </root>
    </mxGraphModel>
  </diagram>
</mxfile>
